<svg id="Layer_1" data-name="Layer 1" xmlns="http://www.w3.org/2000/svg" viewBox="0 0 467.72 123.21"><defs><style>.cls-1{fill:#fff;}</style></defs><path class="cls-1" d="M442.28,51.87V96.92H421.87l0-35.24c0-10-7.74-19.12-18.34-19.12s-18.58,9.15-18.59,19.12l0,35.24H364.61l0-35.24c0-10-7.82-19.12-18.43-19.12s-18.5,9.15-18.51,19.12V96.92H307.39V50.45A11.27,11.27,0,0,1,310,43.28l14.69-17.82a2.25,2.25,0,0,1,1.74-.82h38a2.26,2.26,0,0,1,1.8.89l8.17,10.71L382,25.58a2.24,2.24,0,0,1,1.83-.94h37.94a2.26,2.26,0,0,1,1.73.81l16.13,19.16A11.27,11.27,0,0,1,442.28,51.87Zm-303.63,8c0,10-7.9,19.13-18.51,19.13s-18.42-9.16-18.43-19.13l0-35.24H81.4l0,35.24c0,10-8,19.13-18.59,19.13S44.45,69.85,44.45,59.88l0-35.24H24V69.69A11.27,11.27,0,0,0,26.67,77L42.8,96.11a2.26,2.26,0,0,0,1.72.81H82.47A2.24,2.24,0,0,0,84.3,96L92,85.32,100.14,96a2.26,2.26,0,0,0,1.8.89h38a2.24,2.24,0,0,0,1.74-.83l14.68-17.8a11.27,11.27,0,0,0,2.58-7.18V24.64H138.66Zm80.43,3.5c0,6.35-3.19,15.42-13.73,15.46s-13.73-9.11-13.74-15.46V24.64H171.19V71.25a11.25,11.25,0,0,0,2.42,7l14.28,17.83a2.29,2.29,0,0,0,1.78.86H221a2.27,2.27,0,0,0,1.77-.86l14.28-17.83a11.25,11.25,0,0,0,2.42-7V24.64H219.1ZM283.7,26h0a2.3,2.3,0,0,0-1.4.82L271.9,39.6a9.77,9.77,0,0,0-.63.95V24.64H251.39V96.92l19.88,0V68.12c3.53-5.61,10.38-12.68,14.6-18.74a14,14,0,0,1,11.56-5.74h2.06V25.93H284.06A2.2,2.2,0,0,0,283.7,26Z"/></svg>