<?xml version="1.0" encoding="UTF-8" standalone="no"?>
<svg
   xmlns:dc="http://purl.org/dc/elements/1.1/"
   xmlns:cc="http://creativecommons.org/ns#"
   xmlns:rdf="http://www.w3.org/1999/02/22-rdf-syntax-ns#"
   xmlns:svg="http://www.w3.org/2000/svg"
   xmlns="http://www.w3.org/2000/svg"
   viewBox="0 0 623.62268 164.28133"
   height="164.28133"
   width="623.62268"
   xml:space="preserve"
   id="svg2"
   version="1.1"><metadata
     id="metadata8"><rdf:RDF><cc:Work
         rdf:about=""><dc:format>image/svg+xml</dc:format><dc:type
           rdf:resource="http://purl.org/dc/dcmitype/StillImage" /></cc:Work></rdf:RDF></metadata><defs
     id="defs6"><clipPath
       id="clipPath18"
       clipPathUnits="userSpaceOnUse"><path
         id="path16"
         d="M 0,123.211 H 467.717 V 0 H 0 Z" /></clipPath></defs><g
     transform="matrix(1.3333333,0,0,-1.3333333,0,164.28133)"
     id="g10"><g
       id="g12"><g
         clip-path="url(#clipPath18)"
         id="g14"><g
           transform="translate(285.1216,97.2397)"
           id="g20"><path
             id="path22"
             style="fill:#2b2b2a;fill-opacity:1;fill-rule:nonzero;stroke:none"
             d="m 0,0 h -0.018 v -0.002 c -0.546,-0.093 -1.046,-0.375 -1.394,-0.817 l -10.397,-12.812 c -0.236,-0.3 -0.423,-0.629 -0.626,-0.949 V 1.326 h -19.876 v -72.271 l 19.876,0.041 v 23.461 5.29 c 3.531,5.613 10.38,12.688 14.604,18.747 2.596,3.726 7.015,5.739 11.555,5.739 h 2.06 V 0 0.041 H 0.359 C 0.237,0.041 0.119,0.019 0,0 m -65.476,-37.407 c -0.005,-6.351 -3.193,-15.42 -13.731,-15.466 -10.538,0.046 -13.726,9.115 -13.733,15.466 l -0.017,38.734 h -20.404 v -46.611 c 0,-2.532 0.851,-4.989 2.418,-6.978 l 14.283,-17.826 c 0.428,-0.541 1.081,-0.858 1.773,-0.858 h 31.362 c 0.69,0 1.342,0.317 1.769,0.858 l 14.285,17.826 c 1.566,1.989 2.418,4.446 2.418,6.978 V 1.327 h -20.404 z m -81,3.499 c -0.009,-9.972 -7.897,-19.127 -18.507,-19.127 -10.609,0 -18.419,9.155 -18.428,19.127 l -0.017,35.235 h -0.209 -20.039 -0.045 l -0.02,-35.235 c -0.009,-9.972 -7.976,-19.127 -18.587,-19.127 -10.609,0 -18.34,9.155 -18.348,19.127 l -0.019,35.235 H -261.1 v -45.049 c 0,-2.658 0.941,-5.227 2.65,-7.26 l 16.129,-19.16 c 0.428,-0.51 1.058,-0.804 1.724,-0.804 h 37.948 c 0.725,0 1.409,0.35 1.832,0.938 l 7.667,10.662 8.171,-10.713 c 0.426,-0.559 1.091,-0.887 1.793,-0.887 h 37.974 c 0.675,0 1.312,0.3 1.74,0.822 l 14.685,17.81 c 1.663,2.017 2.574,4.552 2.574,7.171 v 46.47 h -20.245 z m 305.049,8.011 v -45.049 h -20.406 l -0.017,35.235 c -0.011,9.974 -7.739,19.126 -18.349,19.126 -10.609,0 -18.579,-9.152 -18.588,-19.126 l -0.018,-35.235 h -0.046 -20.041 -0.207 l -0.017,35.235 c -0.008,9.974 -7.819,19.126 -18.428,19.126 -10.609,0 -18.498,-9.152 -18.506,-19.126 L 43.931,-70.946 H 23.686 v 46.471 c 0,2.617 0.911,5.153 2.575,7.17 L 40.945,0.506 c 0.428,0.52 1.066,0.821 1.74,0.821 h 37.973 c 0.703,0 1.368,-0.328 1.795,-0.887 l 8.17,-10.713 7.668,10.662 c 0.423,0.588 1.106,0.938 1.832,0.938 h 37.947 c 0.666,0 1.296,-0.294 1.725,-0.804 l 16.128,-19.159 c 1.71,-2.032 2.65,-4.603 2.65,-7.261" /></g></g></g></g></svg>