<svg width="25" height="25" viewBox="0 0 25 25" fill="none" xmlns="http://www.w3.org/2000/svg">
<path fill-rule="evenodd" clip-rule="evenodd" d="M12.5 3.1001C10.0556 3.1001 9.7496 3.1103 8.7896 3.1541C7.8314 3.1979 7.1768 3.3503 6.6044 3.5729C6.0044 3.7985 5.4602 4.1525 5.0102 4.6109C4.55253 5.06038 4.19831 5.60419 3.9722 6.2045C3.7508 6.7769 3.5978 7.4321 3.554 8.3903C3.5108 9.3497 3.5 9.6551 3.5 12.1001C3.5 14.5451 3.5102 14.8505 3.554 15.8105C3.5978 16.7687 3.7502 17.4233 3.9728 17.9957C4.1984 18.5957 4.5524 19.1399 5.0108 19.5899C5.46029 20.0476 6.00411 20.4018 6.6044 20.6279C7.1768 20.8499 7.8314 21.0023 8.7896 21.0461C9.7496 21.0899 10.0556 21.1001 12.5 21.1001C14.9444 21.1001 15.2504 21.0899 16.2104 21.0461C17.1686 21.0023 17.8232 20.8499 18.3956 20.6273C18.9956 20.4017 19.5398 20.0477 19.9898 19.5893C20.4475 19.1398 20.8017 18.596 21.0278 17.9957C21.2498 17.4233 21.4022 16.7687 21.446 15.8105C21.4898 14.8505 21.5 14.5445 21.5 12.1001C21.5 9.6557 21.4898 9.3497 21.446 8.3897C21.4022 7.4315 21.2498 6.7769 21.0272 6.2045C20.8012 5.60394 20.447 5.05989 19.9892 4.6103C19.5397 4.15263 18.9959 3.79841 18.3956 3.5723C17.8232 3.3509 17.168 3.1979 16.2098 3.1541C15.2504 3.1109 14.945 3.1001 12.5 3.1001ZM12.5 4.7219C14.903 4.7219 15.188 4.7309 16.1372 4.7741C17.0144 4.8143 17.4908 4.9601 17.8082 5.0843C18.2282 5.2469 18.5282 5.4425 18.8432 5.7569C19.1582 6.0719 19.3532 6.3719 19.5158 6.7919C19.6394 7.1093 19.7858 7.5857 19.826 8.4629C19.8692 9.4121 19.8782 9.6971 19.8782 12.1001C19.8782 14.5031 19.8692 14.7881 19.826 15.7373C19.7858 16.6145 19.64 17.0909 19.5158 17.4083C19.3718 17.7992 19.1419 18.1529 18.8432 18.4433C18.5528 18.7421 18.1992 18.9719 17.8082 19.1159C17.4908 19.2395 17.0144 19.3859 16.1372 19.4261C15.188 19.4693 14.9036 19.4783 12.5 19.4783C10.0964 19.4783 9.812 19.4693 8.8628 19.4261C7.9856 19.3859 7.5092 19.2401 7.1918 19.1159C6.80087 18.9719 6.4472 18.742 6.1568 18.4433C5.85811 18.1529 5.62828 17.7992 5.4842 17.4083C5.3606 17.0909 5.2142 16.6145 5.174 15.7373C5.1308 14.7881 5.1218 14.5031 5.1218 12.1001C5.1218 9.6971 5.1308 9.4121 5.174 8.4629C5.2142 7.5857 5.36 7.1093 5.4842 6.7919C5.6468 6.3719 5.8424 6.0719 6.1568 5.7569C6.44716 5.45812 6.80085 5.22828 7.1918 5.0843C7.5092 4.9607 7.9856 4.8143 8.8628 4.7741C9.812 4.7309 10.097 4.7219 12.5 4.7219Z" fill="#B2B2B2"/>
<path fill-rule="evenodd" clip-rule="evenodd" d="M12.5 15.1031C12.1057 15.1031 11.7152 15.0255 11.3508 14.8745C10.9865 14.7236 10.6554 14.5024 10.3766 14.2236C10.0977 13.9447 9.87653 13.6137 9.72561 13.2493C9.5747 12.885 9.49702 12.4945 9.49702 12.1001C9.49702 11.7058 9.5747 11.3153 9.72561 10.9509C9.87653 10.5866 10.0977 10.2555 10.3766 9.97669C10.6554 9.69783 10.9865 9.47664 11.3508 9.32572C11.7152 9.17481 12.1057 9.09713 12.5 9.09713C13.2965 9.09713 14.0603 9.41352 14.6235 9.97669C15.1866 10.5399 15.503 11.3037 15.503 12.1001C15.503 12.8966 15.1866 13.6604 14.6235 14.2236C14.0603 14.7867 13.2965 15.1031 12.5 15.1031ZM12.5 7.47413C11.2731 7.47413 10.0965 7.96151 9.22895 8.82905C8.3614 9.6966 7.87402 10.8732 7.87402 12.1001C7.87402 13.327 8.3614 14.5037 9.22895 15.3712C10.0965 16.2388 11.2731 16.7261 12.5 16.7261C13.7269 16.7261 14.9036 16.2388 15.7711 15.3712C16.6386 14.5037 17.126 13.327 17.126 12.1001C17.126 10.8732 16.6386 9.6966 15.7711 8.82905C14.9036 7.96151 13.7269 7.47413 12.5 7.47413ZM18.4718 7.39013C18.4718 7.68015 18.3566 7.95828 18.1515 8.16335C17.9465 8.36842 17.6683 8.48363 17.3783 8.48363C17.0883 8.48363 16.8102 8.36842 16.6051 8.16335C16.4 7.95828 16.2848 7.68015 16.2848 7.39013C16.2848 7.10012 16.4 6.82198 16.6051 6.61691C16.8102 6.41184 17.0883 6.29663 17.3783 6.29663C17.6683 6.29663 17.9465 6.41184 18.1515 6.61691C18.3566 6.82198 18.4718 7.10012 18.4718 7.39013Z" fill="#B2B2B2"/>
</svg>
