<svg width="24" height="24" viewBox="0 0 24 24" fill="none" xmlns="http://www.w3.org/2000/svg">
<g clip-path="url(#clip0_991_25938)">
<path d="M16.1097 4.96973H16.1497C17.1797 4.96973 18.1497 5.36973 18.8697 6.10973C20.3697 7.63973 20.3697 10.1297 18.8697 11.6597L11.9997 18.6097L5.12969 11.6597C3.62969 10.1297 3.62969 7.63973 5.12969 6.10973C5.84969 5.37973 6.80969 4.96973 7.87969 4.96973C8.88969 4.96973 9.84969 5.36973 10.5697 6.10973L11.9897 7.54973L13.4097 6.10973C14.1297 5.37973 15.0797 4.96973 16.0997 4.96973M16.0997 3.96973C14.8097 3.96973 13.5997 4.48973 12.6997 5.40973L11.9897 6.12973L11.2797 5.40973C10.3797 4.48973 9.15969 3.96973 7.87969 3.96973C7.86969 3.96973 7.85969 3.96973 7.83969 3.96973C6.54969 3.96973 5.31969 4.47973 4.40969 5.40973C2.51969 7.33973 2.51969 10.4297 4.40969 12.3597L11.9897 20.0297L19.5697 12.3597C21.4597 10.4297 21.4597 7.33973 19.5697 5.40973C18.6597 4.47973 17.4297 3.96973 16.1397 3.96973C16.1297 3.96973 16.1197 3.96973 16.0997 3.96973Z" fill="white"/>
</g>
<defs>
<clipPath id="clip0_991_25938">
<rect width="24" height="24" fill="white"/>
</clipPath>
</defs>
</svg>
