<svg width="24" height="24" viewBox="0 0 24 24" fill="none" xmlns="http://www.w3.org/2000/svg">
<g clip-path="url(#clip0_991_26195)">
<path d="M13 2L7.3 8H2V16H7.3L13 22H14V2H13ZM13 20.57L7.71 15H3V9H7.71L13 3.43V20.57Z" fill="white"/>
<path d="M22.0007 11.9998C22.0007 9.76984 21.2307 7.70984 19.9307 6.08984L19.2207 6.79984C20.3407 8.22984 21.0007 10.0398 21.0007 11.9998C21.0007 13.9598 20.3407 15.7698 19.2207 17.1998L19.9307 17.9098C21.2307 16.2898 22.0007 14.2298 22.0007 11.9998Z" fill="white"/>
<path d="M17.9997 11.9996C17.9997 13.1396 17.6997 14.2096 17.1697 15.1496L16.4297 14.4096C16.7997 13.6796 16.9997 12.8596 16.9997 11.9996C16.9997 11.1396 16.7997 10.3196 16.4297 9.58961L17.1697 8.84961C17.6997 9.78961 17.9997 10.8596 17.9997 11.9996Z" fill="white"/>
</g>
<defs>
<clipPath id="clip0_991_26195">
<rect width="24" height="24" fill="white"/>
</clipPath>
</defs>
</svg>
