<svg width="24" height="24" viewBox="0 0 24 24" fill="none" xmlns="http://www.w3.org/2000/svg">
<g clip-path="url(#clip0_991_25962)">
<path d="M17 11.5H7V12.5H17V11.5Z" fill="white"/>
<path d="M12 3C16.96 3 21 7.04 21 12C21 16.96 16.96 21 12 21C7.04 21 3 16.96 3 12C3 7.04 7.04 3 12 3ZM12 2C6.48 2 2 6.48 2 12C2 17.52 6.48 22 12 22C17.52 22 22 17.52 22 12C22 6.48 17.52 2 12 2Z" fill="white"/>
</g>
<defs>
<clipPath id="clip0_991_25962">
<rect width="24" height="24" fill="white"/>
</clipPath>
</defs>
</svg>
