<svg width="25" height="25" viewBox="0 0 25 25" fill="none" xmlns="http://www.w3.org/2000/svg">
<path fill-rule="evenodd" clip-rule="evenodd" d="M20.292 5.51493C21.1521 5.74599 21.8325 6.42636 22.0635 7.28643C22.4872 8.85254 22.5 12.1003 22.5 12.1003C22.5 12.1003 22.5 15.3609 22.0764 16.9142C21.8453 17.7742 21.165 18.4546 20.3049 18.6857C18.7516 19.1093 12.5 19.1093 12.5 19.1093C12.5 19.1093 6.24839 19.1093 4.69512 18.6857C3.83504 18.4546 3.15469 17.7742 2.92362 16.9142C2.5 15.3481 2.5 12.1003 2.5 12.1003C2.5 12.1003 2.5 8.85254 2.91078 7.29927C3.14185 6.43919 3.82221 5.75883 4.68229 5.52777C6.23556 5.10414 12.4872 5.09131 12.4872 5.09131C12.4872 5.09131 18.7388 5.09131 20.292 5.51493ZM15.6836 12.1003L10.4974 15.1041V9.09645L15.6836 12.1003Z" fill="#B2B2B2"/>
</svg>
