<svg width="24" height="24" viewBox="0 0 24 24" fill="none" xmlns="http://www.w3.org/2000/svg">
<g clip-path="url(#clip0_991_25971)">
<path d="M14.43 13.73C15.4 12.59 16 11.12 16 9.5C16 5.91 13.09 3 9.5 3C5.91 3 3 5.91 3 9.5C3 13.09 5.91 16 9.5 16C11.11 16 12.59 15.41 13.73 14.43L20.65 21.35L21.36 20.64L14.44 13.72L14.43 13.73ZM4 9.5C4 6.47 6.47 4 9.5 4C12.53 4 15 6.47 15 9.5C15 12.53 12.53 15 9.5 15C6.47 15 4 12.53 4 9.5Z" fill="white"/>
<path d="M12.5 9H6.5V10H12.5V9Z" fill="white"/>
</g>
<defs>
<clipPath id="clip0_991_25971">
<rect width="24" height="24" fill="white"/>
</clipPath>
</defs>
</svg>
